<svg width="204" height="200" viewBox="0 0 204 200" fill="none" xmlns="http://www.w3.org/2000/svg">
<g clip-path="url(#clip0_146_220)">
<path d="M71.5837 119.45C68.9282 119.454 66.3056 120.037 63.8988 121.16C61.4921 122.282 59.3593 123.915 57.6491 125.947C55.939 127.978 54.6928 130.359 53.9975 132.922C53.3022 135.484 53.1746 138.168 53.6235 140.785C54.0725 143.403 55.0871 145.89 56.5967 148.075C58.1063 150.26 60.0745 152.088 62.3639 153.434C64.6532 154.779 67.2087 155.609 69.8518 155.865C72.4949 156.121 75.162 155.797 77.667 154.916" stroke="#E94F37" stroke-width="4" stroke-linecap="round" stroke-linejoin="round"/>
<path d="M54.9392 129.214C51.2987 127.461 48.1519 124.83 45.7829 121.557C43.4138 118.284 41.8971 114.472 41.3695 110.466C40.8419 106.461 41.3201 102.386 42.7609 98.6116C44.2017 94.8368 46.5598 91.4802 49.6224 88.8448M49.8049 88.352C47.8098 85.3666 46.9354 81.7716 47.3364 78.2034C47.7374 74.6352 49.388 71.3239 51.996 68.8558C54.6039 66.3877 58.001 64.922 61.5859 64.7181C65.1708 64.5142 68.7122 65.5852 71.5832 67.7417M73.031 68.1371C72.0606 66.0751 71.566 63.8214 71.5837 61.5425C71.6014 59.2637 72.131 57.0179 73.1335 54.9713C74.1359 52.9247 75.5854 51.1295 77.375 49.7184C79.1645 48.3074 81.2483 47.3165 83.4723 46.8191C85.6963 46.3217 88.0036 46.3305 90.2237 46.8448C92.4439 47.3591 94.5201 48.3658 96.2988 49.7905C98.0775 51.2151 99.5134 53.0213 100.5 55.0755C101.487 57.1297 102 59.3794 102 61.6583V155.95C102 159.177 100.718 162.271 98.4363 164.553C96.1547 166.835 93.06 168.117 89.8332 168.117C86.6064 168.117 83.5118 166.835 81.2301 164.553C78.9484 162.271 77.6665 159.177 77.6665 155.95M102 76.8667C102 81.7069 103.923 86.3488 107.345 89.7714C110.768 93.1939 115.41 95.1167 120.25 95.1167M132.417 119.45C135.072 119.454 137.695 120.037 140.101 121.16C142.508 122.282 144.641 123.915 146.351 125.947C148.061 127.978 149.307 130.359 150.003 132.922C150.698 135.484 150.826 138.168 150.377 140.785C149.928 143.403 148.913 145.89 147.403 148.075C145.894 150.26 143.926 152.088 141.636 153.434C139.347 154.779 136.792 155.609 134.148 155.865C131.505 156.121 128.838 155.797 126.333 154.916" stroke="#E94F37" stroke-width="4" stroke-linecap="round" stroke-linejoin="round"/>
<path d="M149.061 129.214C152.701 127.461 155.848 124.83 158.217 121.557C160.586 118.284 162.103 114.472 162.63 110.466C163.158 106.461 162.68 102.386 161.239 98.6116C159.798 94.8368 157.44 91.4802 154.378 88.8448M154.195 88.352C156.19 85.3666 157.065 81.7716 156.663 78.2034C156.262 74.6352 154.612 71.3239 152.004 68.8558C149.396 66.3877 145.999 64.922 142.414 64.7181C138.829 64.5142 135.288 65.5852 132.417 67.7417M102 61.6583C102 59.3794 102.513 57.1297 103.5 55.0755C104.486 53.0213 105.922 51.2151 107.701 49.7905C109.48 48.3658 111.556 47.3591 113.776 46.8448C115.996 46.3305 118.304 46.3217 120.528 46.8191C122.752 47.3165 124.835 48.3074 126.625 49.7184C128.414 51.1295 129.864 52.9247 130.866 54.9713C131.869 57.0179 132.398 59.2637 132.416 61.5425C132.434 63.8214 131.939 66.0751 130.969 68.1371M126.333 155.95C126.333 159.177 125.051 162.271 122.77 164.553C120.488 166.835 117.393 168.117 114.167 168.117C110.94 168.117 107.845 166.835 105.564 164.553C103.282 162.271 102 159.177 102 155.95" stroke="#E94F37" stroke-width="4" stroke-linecap="round" stroke-linejoin="round"/>
<path d="M157.322 47.7343C158.287 46.0658 158.675 44.1252 158.424 42.2139C158.173 40.3025 157.298 38.5275 155.935 37.1645C154.572 35.8015 152.797 34.9269 150.885 34.6764C148.974 34.4259 147.033 34.8136 145.365 35.7792C144.791 36.111 144.371 36.6574 144.2 37.2981C144.028 37.9389 144.118 38.6215 144.45 39.1959C144.782 39.7703 145.328 40.1893 145.969 40.3609C146.61 40.5324 147.293 40.4423 147.867 40.1105C148.438 39.7819 149.085 39.6091 149.743 39.6093C150.402 39.6095 151.049 39.7828 151.619 40.1117C152.48 40.609 153.109 41.4281 153.366 42.3888C153.624 43.3494 153.489 44.373 152.992 45.2343C152.494 46.0957 151.675 46.7242 150.715 46.9816C149.754 47.239 148.73 47.1042 147.869 46.6069L147.863 46.6032C147.715 46.5366 147.561 46.4853 147.402 46.4501C147.249 46.381 147.088 46.3271 146.924 46.2892C146.767 46.2855 146.611 46.2968 146.457 46.3228C146.293 46.3188 146.13 46.3308 145.969 46.3585C145.804 46.4187 145.646 46.4959 145.498 46.5889C145.362 46.6408 145.232 46.7045 145.108 46.7795C144.974 46.9015 144.854 47.0373 144.75 47.1847C144.641 47.2875 144.542 47.4005 144.454 47.522L143.204 49.6871L143.195 49.7134L142.581 50.7764C142.251 51.3506 142.162 52.0321 142.334 52.6716C142.506 53.311 142.925 53.8561 143.498 54.1872L143.505 54.1909C143.789 54.3545 144.104 54.4604 144.429 54.5026C144.755 54.5448 145.085 54.5225 145.402 54.4369C145.719 54.3513 146.016 54.2041 146.276 54.0037C146.536 53.8033 146.754 53.5537 146.918 53.269L147.741 51.8332C149.567 52.27 151.484 52.1071 153.21 51.3689C154.935 50.6306 156.377 49.3562 157.322 47.7343ZM139.734 57.1814C139.256 57.3074 138.826 57.5723 138.499 57.9427C138.171 58.3131 137.961 58.7723 137.894 59.2622C137.828 59.7522 137.908 60.2508 138.125 60.6952C138.342 61.1395 138.685 61.5096 139.113 61.7586C139.689 62.085 140.369 62.1779 141.012 62.0183C141.651 61.8397 142.195 61.4178 142.527 60.8431C142.859 60.2685 142.952 59.5867 142.787 58.9439C142.596 58.3184 142.174 57.7887 141.608 57.4616C141.041 57.1345 140.372 57.0344 139.734 57.1814Z" fill="#E94F37"/>
<path d="M142.311 17.1891L138.5 40.0625L134.689 17.1891C134.597 16.6361 134.628 16.0697 134.777 15.5294C134.926 14.9891 135.192 14.4878 135.554 14.0603C135.917 13.6328 136.368 13.2894 136.877 13.0538C137.386 12.8183 137.94 12.6963 138.5 12.6963C139.061 12.6963 139.615 12.8183 140.123 13.0538C140.632 13.2894 141.083 13.6328 141.446 14.0603C141.809 14.4878 142.074 14.9891 142.223 15.5294C142.373 16.0697 142.403 16.6361 142.311 17.1891Z" stroke="#E94F37" stroke-width="3.65" stroke-linecap="round" stroke-linejoin="round"/>
<path d="M138.5 59.8333C140.18 59.8333 141.542 58.4715 141.542 56.7917C141.542 55.1118 140.18 53.75 138.5 53.75C136.82 53.75 135.458 55.1118 135.458 56.7917C135.458 58.4715 136.82 59.8333 138.5 59.8333Z" stroke="#E94F37" stroke-width="2.43333"/>
</g>
<defs>
<clipPath id="clip0_146_220">
<rect width="204" height="200" rx="10" fill="white"/>
</clipPath>
</defs>
</svg>
