<svg width="204" height="200" viewBox="0 0 204 200" fill="none" xmlns="http://www.w3.org/2000/svg">
<path d="M77.0001 109C74.8175 109.003 72.662 109.483 70.6838 110.405C68.7057 111.327 66.9527 112.67 65.5471 114.34C64.1415 116.01 63.1172 117.966 62.5458 120.072C61.9743 122.179 61.8694 124.385 62.2384 126.536C62.6074 128.687 63.4413 130.732 64.6821 132.527C65.9229 134.323 67.5405 135.826 69.4222 136.932C71.3039 138.038 73.4042 138.72 75.5766 138.93C77.7491 139.141 79.9412 138.874 82.0001 138.15" stroke="#E94F37" stroke-width="1.5" stroke-linecap="round" stroke-linejoin="round"/>
<path d="M63.3201 117.025C60.3279 115.584 57.7415 113.422 55.7943 110.731C53.8471 108.041 52.6005 104.909 52.1669 101.616C51.7332 98.3237 52.1263 94.9751 53.3105 91.8725C54.4947 88.77 56.4329 86.0111 58.9501 83.845M59.1001 83.44C57.4603 80.9862 56.7416 78.0314 57.0712 75.0987C57.4008 72.1659 58.7574 69.4443 60.9009 67.4157C63.0445 65.3872 65.8366 64.1824 68.7831 64.0149C71.7296 63.8473 74.6403 64.7276 77.0001 66.5M78.1901 66.825C77.3924 65.1302 76.9859 63.2779 77.0004 61.4048C77.015 59.5318 77.4503 57.686 78.2742 56.0038C79.0981 54.3216 80.2895 52.8461 81.7604 51.6864C83.2312 50.5266 84.9439 49.7122 86.7719 49.3034C88.5998 48.8946 90.4963 48.9018 92.321 49.3245C94.1458 49.7472 95.8523 50.5746 97.3142 51.7456C98.7762 52.9165 99.9564 54.401 100.767 56.0894C101.578 57.7778 102 59.6269 102 61.5V139C102 141.652 100.946 144.196 99.0711 146.071C97.1958 147.946 94.6522 149 92.0001 149C89.3479 149 86.8044 147.946 84.929 146.071C83.0536 144.196 82.0001 141.652 82.0001 139M102 74C102 77.9783 103.58 81.7936 106.393 84.6066C109.206 87.4197 113.022 89 117 89M127 109C129.183 109.003 131.338 109.483 133.316 110.405C135.294 111.327 137.048 112.67 138.453 114.34C139.859 116.01 140.883 117.966 141.454 120.072C142.026 122.179 142.131 124.385 141.762 126.536C141.393 128.687 140.559 130.732 139.318 132.527C138.077 134.323 136.46 135.826 134.578 136.932C132.696 138.038 130.596 138.72 128.424 138.93C126.251 139.141 124.059 138.874 122 138.15" stroke="#E94F37" stroke-width="1.5" stroke-linecap="round" stroke-linejoin="round"/>
<path d="M140.68 117.025C143.672 115.584 146.259 113.422 148.206 110.731C150.153 108.041 151.4 104.909 151.833 101.616C152.267 98.3237 151.874 94.9751 150.69 91.8725C149.505 88.77 147.567 86.0111 145.05 83.845M144.9 83.44C146.54 80.9862 147.258 78.0314 146.929 75.0987C146.599 72.1659 145.243 69.4443 143.099 67.4157C140.956 65.3872 138.163 64.1824 135.217 64.0149C132.27 63.8473 129.36 64.7276 127 66.5M102 61.5C102 59.6269 102.422 57.7778 103.233 56.0894C104.044 54.401 105.224 52.9165 106.686 51.7456C108.148 50.5746 109.854 49.7472 111.679 49.3245C113.504 48.9018 115.4 48.8946 117.228 49.3034C119.056 49.7122 120.769 50.5266 122.24 51.6864C123.711 52.8461 124.902 54.3216 125.726 56.0038C126.55 57.686 126.985 59.5318 127 61.4048C127.014 63.2779 126.608 65.1302 125.81 66.825M122 139C122 141.652 120.946 144.196 119.071 146.071C117.196 147.946 114.652 149 112 149C109.348 149 106.804 147.946 104.929 146.071C103.054 144.196 102 141.652 102 139" stroke="#E94F37" stroke-width="1.5" stroke-linecap="round" stroke-linejoin="round"/>
<path d="M157.322 47.7344C158.287 46.0658 158.675 44.1252 158.424 42.2139C158.173 40.3025 157.298 38.5275 155.935 37.1645C154.572 35.8016 152.797 34.9269 150.885 34.6764C148.974 34.4259 147.033 34.8136 145.365 35.7792C144.791 36.111 144.371 36.6574 144.2 37.2982C144.028 37.9389 144.118 38.6216 144.45 39.1959C144.782 39.7703 145.328 40.1893 145.969 40.3609C146.61 40.5324 147.293 40.4424 147.867 40.1106C148.438 39.782 149.085 39.6091 149.743 39.6093C150.402 39.6095 151.049 39.7828 151.619 40.1118C152.48 40.609 153.109 41.4281 153.366 42.3888C153.624 43.3495 153.489 44.373 152.992 45.2344C152.494 46.0957 151.675 46.7242 150.715 46.9816C149.754 47.239 148.73 47.1042 147.869 46.607L147.863 46.6032C147.715 46.5366 147.561 46.4853 147.402 46.4501C147.249 46.381 147.088 46.3271 146.924 46.2892C146.767 46.2856 146.611 46.2968 146.457 46.3228C146.293 46.3188 146.13 46.3308 145.969 46.3585C145.804 46.4187 145.646 46.4959 145.498 46.589C145.362 46.6408 145.232 46.7045 145.108 46.7795C144.974 46.9015 144.854 47.0374 144.75 47.1847C144.641 47.2875 144.542 47.4005 144.454 47.522L143.204 49.6871L143.195 49.7134L142.581 50.7764C142.251 51.3506 142.162 52.0321 142.334 52.6716C142.506 53.311 142.925 53.8561 143.498 54.1872L143.505 54.1909C143.789 54.3545 144.104 54.4604 144.429 54.5026C144.755 54.5448 145.085 54.5225 145.402 54.4369C145.719 54.3513 146.016 54.2041 146.276 54.0037C146.536 53.8033 146.754 53.5537 146.918 53.269L147.741 51.8333C149.567 52.27 151.484 52.1071 153.21 51.3689C154.935 50.6306 156.377 49.3562 157.322 47.7344ZM139.734 57.1814C139.256 57.3074 138.826 57.5723 138.499 57.9427C138.171 58.3131 137.961 58.7723 137.894 59.2622C137.828 59.7522 137.908 60.2508 138.125 60.6952C138.342 61.1396 138.685 61.5096 139.113 61.7587C139.689 62.085 140.369 62.1779 141.012 62.0183C141.651 61.8397 142.195 61.4178 142.527 60.8432C142.859 60.2685 142.952 59.5867 142.787 58.9439C142.596 58.3184 142.174 57.7887 141.608 57.4616C141.041 57.1345 140.372 57.0344 139.734 57.1814Z" fill="#E94F37"/>
<path d="M135.133 24.95L132 43.75L128.868 24.95C128.793 24.4954 128.817 24.0299 128.94 23.5858C129.063 23.1418 129.281 22.7297 129.579 22.3784C129.877 22.027 130.248 21.7447 130.666 21.5511C131.084 21.3575 131.539 21.2572 132 21.2572C132.461 21.2572 132.916 21.3575 133.334 21.5511C133.752 21.7447 134.123 22.027 134.421 22.3784C134.719 22.7297 134.937 23.1418 135.06 23.5858C135.183 24.0299 135.208 24.4954 135.133 24.95Z" stroke="#E94F37" stroke-width="3" stroke-linecap="round" stroke-linejoin="round"/>
<path d="M132 60C133.381 60 134.5 58.8807 134.5 57.5C134.5 56.1193 133.381 55 132 55C130.619 55 129.5 56.1193 129.5 57.5C129.5 58.8807 130.619 60 132 60Z" stroke="#E94F37" stroke-width="2"/>
<path d="M43.7812 171.82C43.7812 174.367 43.4766 176.703 42.8672 178.828C42.2734 180.938 41.3516 182.766 40.1016 184.312C38.8516 185.859 37.2656 187.07 35.3438 187.945L43.5938 197.156H34.2891L28.0078 189.469C27.8984 189.469 27.8047 189.469 27.7266 189.469C27.6484 189.469 27.5625 189.469 27.4688 189.469C24.6719 189.469 22.25 189.055 20.2031 188.227C18.1562 187.383 16.4609 186.18 15.1172 184.617C13.7891 183.055 12.7969 181.188 12.1406 179.016C11.4844 176.844 11.1562 174.43 11.1562 171.773C11.1562 168.227 11.7344 165.141 12.8906 162.516C14.0625 159.875 15.8594 157.828 18.2812 156.375C20.7031 154.922 23.7812 154.195 27.5156 154.195C31.2344 154.195 34.2891 154.922 36.6797 156.375C39.0859 157.828 40.8672 159.875 42.0234 162.516C43.1953 165.156 43.7812 168.258 43.7812 171.82ZM18.7734 171.82C18.7734 174.211 19.0703 176.273 19.6641 178.008C20.2734 179.727 21.2188 181.055 22.5 181.992C23.7812 182.914 25.4375 183.375 27.4688 183.375C29.5312 183.375 31.2031 182.914 32.4844 181.992C33.7656 181.055 34.6953 179.727 35.2734 178.008C35.8672 176.273 36.1641 174.211 36.1641 171.82C36.1641 168.227 35.4922 165.398 34.1484 163.336C32.8047 161.273 30.5938 160.242 27.5156 160.242C25.4688 160.242 23.7969 160.711 22.5 161.648C21.2188 162.57 20.2734 163.898 19.6641 165.633C19.0703 167.352 18.7734 169.414 18.7734 171.82ZM81.1734 154.734V176.906C81.1734 179.266 80.65 181.398 79.6031 183.305C78.5719 185.195 77.0016 186.695 74.8922 187.805C72.7984 188.914 70.1578 189.469 66.9703 189.469C62.4391 189.469 58.9859 188.312 56.6109 186C54.2359 183.688 53.0484 180.625 53.0484 176.812V154.734H60.2906V175.711C60.2906 178.539 60.8688 180.523 62.025 181.664C63.1813 182.805 64.8922 183.375 67.1578 183.375C68.7516 183.375 70.0406 183.102 71.025 182.555C72.025 182.008 72.7594 181.164 73.2281 180.023C73.6969 178.883 73.9313 177.43 73.9313 175.664V154.734H81.1734ZM91.9641 189V154.734H99.2297V189H91.9641ZM132.591 189H107.091V184.289L123.52 160.734H107.536V154.734H132.145V159.422L115.739 183H132.591V189ZM140.452 189V154.734H147.717V183H161.616V189H140.452ZM180.656 168.844L187.805 154.734H195.633L184.266 175.664V189H177.047V175.898L165.68 154.734H173.555L180.656 168.844Z" fill="#F6F7EB"/>
</svg>
